<svg xml:space="preserve" style="enable-background:new 0 0 248.9 77.7;" viewBox="0 0 248.9 77.7" y="0px" x="0px" xmlns:xlink="http://www.w3.org/1999/xlink" xmlns="http://www.w3.org/2000/svg" id="Layer_1" version="1.1">
<style type="text/css">
	.st0{fill:#25368A;}
	.st1{fill:#FFFFFF;}
	.st2{fill:#FCB026;}
	.st3{fill-rule:evenodd;clip-rule:evenodd;}
	.st4{fill:none;stroke:#1D1D1B;stroke-width:7.000000e-03;stroke-miterlimit:3.864;}
</style>
<g>
	<path d="M248.8,74.1c0,1.9-1.5,3.4-3.4,3.4H3.6c-1.9,0-3.4-1.5-3.4-3.4V3.6c0-1.9,1.5-3.4,3.4-3.4h241.7c1.9,0,3.4,1.5,3.4,3.4
		V74.1z"></path>
	<path d="M226.1,49.5c0,0.1,0,0.3,0,0.4c0,0,0,0,0,0C226.1,49.7,226.1,49.6,226.1,49.5" class="st0"></path>
	<path d="M64.7,64.7c-4.2,4-10.3,4.9-19.4,4.9H32.3c-18.1,0-23.9-4.3-23.9-18.9v-8h17.3c0,0.8-0.1,1.5-0.1,2.2
		c0,7.3,1.8,9.7,9.1,9.7h8.3c6.7,0,7.8-2.5,7.8-8.6V8.4h18.5v43.5C69.5,57.2,67.6,61.9,64.7,64.7" class="st1"></path>
	<path d="M137.1,29.6c0-4.8-3.1-6.8-9.8-6.8h-14.8c-12,0-14.9,1.6-14.9,11.9v8.4c0,9.5,4.1,11.4,14.9,11.4h10.8
		c10.3,0,14.3-1.1,14.3-8.3v-0.7h18.8c0.1,1.6,0.2,3,0.2,4.4c0,7.5-1.8,12.5-6.1,15.7c-4.6,3.4-11.8,4.1-22.4,4.1h-20.7
		c-9.6,0-16.3-0.4-21.6-4.5c-5.1-4-7-9.5-7-17.8V31c0-18.2,7.9-23.3,28.6-23.3H128c10.6,0,17.8,0.5,22.2,3.9c3.9,3,5.6,8,5.6,15.3
		c0,1.1,0,2.2-0.1,3.4h-18.6V29.6z" class="st1"></path>
	<path d="M164.5,69V8.4h54.6c13.6,0,20.2,5.5,20.2,16.9c0,6.5-2.8,10.5-8.9,12.8c7.7,1.2,11,5.8,11,14.4
		c0,11.7-6,16.4-19.4,16.4H164.5z M220.3,27c0-3-1.9-5-4.8-5h-32.5v10h32.5C218.7,32,220.3,30.2,220.3,27 M222.3,49.6
		c0-3.3-2-5.3-5.1-5.3h-34.2v10.9h34.2C220.5,55.2,222.3,53.2,222.3,49.6" class="st1"></path>
	<rect height="24.9" width="24.9" class="st2" y="8.4" x="8.4"></rect>
	<path d="M26.7,20.8c0,0,0.4,0,0.5,0c0.1,0,0.3,0,0.5,0.2c0,0.1,0.2,0.7,0.3,0.8c0,0.1,0.1,0.4-0.2,0.5
		c-0.1,0-0.5,0.1-0.5,0.1L26.7,20.8z M25.7,17.9c0,0,0.5,0,0.7,0c0.1,0,0.2,0.1,0.3,0.2c0,0.1,0.2,0.7,0.3,0.7
		c0,0.1,0.1,0.4-0.2,0.4c0,0-0.6,0-0.6,0L25.7,17.9z M23.9,16.2c0,0,2.2,0.3,2.4,0.4c0.9,0.1,1.3,0.9,1.4,1.2c0,0.1,0.3,0.9,0.3,1
		c0.3,0.7-0.4,1-0.4,1s0.7,0.1,1,0.7c0,0,0.5,1.4,0.5,1.5c0,0.1,0.4,1.2-0.8,1.6c-0.2,0.1-2,0.5-2,0.5L23.9,16.2z" class="st3"></path>
	<path d="M14.8,14.9l3.7,0.5l0.6,2l-0.9-0.1c0,0,2.1,6.7,2.2,6.9c0.3,0.8,0.4,1.5-0.7,1.9c-0.1,0.1-1.2,0.4-1.4,0.4
		c-0.7,0.2-1.5,0.2-1.8-0.9l-1.3-4.2l1.6-0.1c0,0,0.7,2.1,0.7,2.3c0.1,0.4,0.2,0.6,0.7,0.5c0.3-0.1,0.3-0.2,0.2-0.5
		c0-0.1-2-6.5-2-6.5l-0.9-0.1L14.8,14.9z"></path>
	<path d="M14.8,14.9l3.7,0.5l0.6,2l-0.9-0.1c0,0,2.1,6.7,2.2,6.9c0.3,0.8,0.4,1.5-0.7,1.9c-0.1,0.1-1.2,0.4-1.4,0.4
		c-0.7,0.2-1.5,0.2-1.8-0.9l-1.3-4.2l1.6-0.1c0,0,0.7,2.1,0.7,2.3c0.1,0.4,0.2,0.6,0.7,0.5c0.3-0.1,0.3-0.2,0.2-0.5
		c0-0.1-2-6.5-2-6.5l-0.9-0.1L14.8,14.9z" class="st4"></path>
	<path d="M20.3,15.7c0.2,0,1.3,0.2,1.5,0.2s1.3,0.2,1.6,1.2c0.1,0.2,0.6,2,0.6,2l-1.4,0c0,0-0.3-0.9-0.3-1c-0.1-0.4-0.1-0.5-0.6-0.5
		c-0.4,0-0.4,0.1-0.3,0.4c0,0.2,1.3,4.3,1.4,4.5c0.1,0.5,0.2,0.7,0.6,0.6c0.4-0.1,0.3-0.3,0.2-0.6c0-0.1-0.4-1.4-0.4-1.4l1.4-0.1
		c0,0,0.7,2.2,0.7,2.3c0,0.1,0.3,1-0.5,1.4c-0.1,0.1-0.1,0.1-0.2,0.1c-0.1,0-1.2,0.4-1.3,0.4c-0.1,0-1.2,0.4-1.5-0.7
		c0-0.1-2.3-7.5-2.4-7.8C19.2,16.1,19.4,15.6,20.3,15.7"></path>
	<path d="M20.3,15.7c0.2,0,1.3,0.2,1.5,0.2s1.3,0.2,1.6,1.2c0.1,0.2,0.6,2,0.6,2l-1.4,0c0,0-0.3-0.9-0.3-1
		c-0.1-0.4-0.1-0.5-0.6-0.5c-0.4,0-0.4,0.1-0.3,0.4c0,0.2,1.3,4.3,1.4,4.5c0.1,0.5,0.2,0.7,0.6,0.6c0.4-0.1,0.3-0.3,0.2-0.6
		c0-0.1-0.4-1.4-0.4-1.4l1.4-0.1c0,0,0.7,2.2,0.7,2.3c0,0.1,0.3,1-0.5,1.4c-0.1,0.1-0.1,0.1-0.2,0.1c-0.1,0-1.2,0.4-1.3,0.4
		c-0.1,0-1.2,0.4-1.5-0.7c0-0.1-2.3-7.5-2.4-7.8C19.2,16.1,19.4,15.6,20.3,15.7z" class="st4"></path>
	<path d="M13.4,13.7c0.7,0.1,12.6,2.1,13.1,2.1c0.5,0.1,1.4,0.2,1.8,1.3c0.1,0.2,1.7,5.1,1.8,5.3
		c0.1,0.2,0.5,1.3-0.8,1.7c-0.2,0.1-11.4,3.6-11.7,3.6c-0.3,0.1-1.3,0.5-1.8-1c0,0-3.4-10.8-3.6-11.3c-0.1-0.4-0.2-0.7-0.2-1
		c-0.1-0.9,0.5-0.9,0.9-0.9C13.1,13.7,13.2,13.7,13.4,13.7 M13,13.1c0.3,0,13.3,2.2,13.6,2.2c0.3,0.1,1.6,0.2,2.1,1.7
		c0.1,0.3,1.7,5.1,1.8,5.4c0.3,0.9,0.2,1.8-1,2.2c-0.4,0.1-11.6,3.7-11.7,3.7c-0.3,0.1-1.9,0.8-2.5-1.1c0,0-3.6-11.4-3.7-11.7
		c-0.2-0.5-0.3-1-0.3-1.3C11.4,12.8,12.8,13.1,13,13.1" class="st3"></path>
</g>
</svg>
